<?xml version="1.0" encoding="UTF-8"?>
<svg xmlns="http://www.w3.org/2000/svg"  width="400mm" height="400mm" version="1.0"
viewBox="0 0 400 400">
  <defs>
    <linearGradient id="Gradient2" x1="0" x2="0" y1="0" y2="1">
      <stop offset="5%" stop-color="rgb(116 112 115)" stop-opacity="0.7"/>
      <stop offset="50%" stop-color="#f1ffa7" stop-opacity="0.7"/>
      <stop offset="100%" stop-color="rgb(116 112 115)" stop-opacity="0.7"/>
    </linearGradient>
  </defs>
  <path fill="url(#Gradient2)" fill-rule="nonzero"  d="M302 315l0 -14c1,0 7,3 9,4l0 13 -9 -3zm15 -17c2,0 7,0 9,2 0,1 0,10 0,12 0,0 0,0 -1,0 -1,0 -1,0 -1,0l-6 -2 0 -11 0 -1zm-180 3l0 -11 6 0 0 14c-7,0 -6,0 -6,-3zm-13 -15c1,0 10,3 10,4l0 15c-6,-2 -10,-1 -10,-4 0,-4 0,-11 0,-15zm178 -3c1,0 7,3 9,4 1,2 0,11 0,13l-9 -3 0 -14zm-133 -12c2,0 6,-1 7,1l0 9c0,10 2,11 -5,10 -1,0 -2,0 -2,-1 0,-2 0,-17 0,-18zm148 6c2,0 6,2 7,2l0 12c-1,0 -6,-2 -7,-3l0 -11zm-87 -9c1,0 5,2 7,2 0,3 0,6 0,10 0,2 0,3 0,5 0,5 1,5 -7,2l0 -20 0 1zm-15 0c2,0 5,1 7,2l0 19c-2,0 -5,-2 -7,-2l0 -20 0 1zm-31 22l0 -20c1,-1 6,-4 9,-4l0 21 -9 4 0 -1zm-46 -23c1,0 5,0 6,0 1,1 1,12 0,14l-6 0 0 -14zm-13 -4c2,0 9,3 10,4l0 15c-2,0 -7,-1 -10,-2l0 -16 0 -1zm178 1c1,0 7,3 9,4l0 13c-2,0 -7,-2 -9,-3l0 -13 0 -1zm15 -6c1,0 6,2 7,2l0 12c-2,-1 -5,-2 -7,-3l0 -11zm-87 -16c2,0 6,1 7,1l0 19 -7 -1 0 -20 0 1zm-63 3c0,-3 0,-2 3,-3 2,0 3,-1 5,-1l0 16c0,6 0,4 -3,5 -1,0 -3,1 -5,1l0 -18zm134 0l6 3c1,1 1,0 2,1l0 12c-2,0 -6,-2 -9,-3l0 -14 0 1zm-81 16c0,0 -6,-2 -6,-2 -1,-1 -1,-6 -1,-9 0,-5 0,-12 0,-17 2,0 5,3 7,4l0 23zm-84 -17l6 0 0 14 -6 0 0 -14zm46 17c0,-5 0,-12 0,-17 0,-4 0,-3 3,-5 1,-1 3,-2 5,-3 0,3 0,19 0,21 -1,1 -6,4 -7,4l-1 0zm-59 -21c1,0 9,3 10,4 0,2 0,5 0,7 0,9 1,7 -5,6 -1,0 -4,-1 -5,-1l0 -16 1 -1zm193 -2c1,0 6,2 7,2l0 12c-2,0 -6,-2 -7,-3l0 -11zm-15 -11c1,0 7,3 9,4l0 13c-3,0 -5,-2 -9,-3l0 -14zm-164 12c-1,-2 -1,-14 0,-16 2,0 7,0 10,0 0,2 0,14 0,16 -2,0 -7,0 -10,0zm-14 -22c1,0 9,3 10,4l0 15c-1,0 -9,-2 -10,-2l0 -16 0 -1zm44 -2c1,-1 3,-1 5,-1l1 0c1,2 1,6 1,9 0,2 1,6 1,9l-9 0 0 -17 0 1zm149 3c2,0 6,2 9,3l0 12c-2,0 -6,-3 -9,-4l0 -11zm-134 -9c1,-1 7,-5 9,-5l0 21c-1,1 -6,4 -9,4l0 -20zm32 15c0,-3 0,-18 0,-20 2,1 9,5 10,7l0 20c-1,0 -7,-5 -10,-6l0 -1zm87 -16c2,0 7,3 9,4l0 13 -9 -3 0 -14zm15 -10c1,0 10,4 11,5 0,1 0,11 0,12 -1,0 -10,-4 -11,-4l0 -13zm-183 14c-1,0 -4,-1 -6,-1 -3,-1 -4,0 -4,-3 0,-4 0,-10 0,-14 1,0 9,3 10,4l0 15 1 -1zm6 -11c2,0 7,1 9,1l-1 14c-2,0 -6,-1 -7,-2l0 -13zm162 -13c1,0 7,3 9,4l0 13c-2,0 -7,-2 -9,-3l0 -14zm-138 -2c1,-1 7,-4 9,-4 0,3 2,17 1,20 -2,0 -7,1 -10,1l0 -17zm17 -7c1,-1 9,-5 11,-5l0 21c-1,1 -9,4 -10,4l0 -21 -1 1zm43 20c-1,0 -4,-2 -5,-3 -1,-1 -1,-1 -2,-2 -1,-1 -1,-1 -1,-3 0,-6 0,-13 0,-18 2,0 5,4 7,5 1,1 1,1 1,3 0,5 0,13 0,18zm93 -21c1,0 11,4 11,5l0 12c-2,0 -10,-5 -11,-6l0 -11zm-176 14c0,-1 0,-13 1,-14 0,-2 1,-1 4,0 1,1 3,2 5,2l-1 16c-1,0 -9,-3 -10,-4zm-17 -21c0,-2 1,-1 2,0l7 3 0 15c-2,0 -4,-1 -5,-1 -5,-1 -4,2 -4,-16l0 -1zm178 -1c1,0 7,3 9,4l0 13 -9 -3 0 -14zm17 -10c1,0 10,4 11,4l0 12c-2,0 -10,-4 -11,-5l0 -11zm-139 -10c0,-2 0,-2 2,-3 2,-1 7,-4 10,-4l0 21c-1,1 -10,4 -11,4l0 -19 -1 1zm122 1c1,0 7,3 9,4l0 13 -9 -3 0 -14zm-149 21c-1,0 -9,-2 -10,-3 0,-1 0,-11 0,-13 2,0 9,2 11,3l-1 14 0 -1zm-29 -26c1,0 9,3 10,4l0 15c-1,0 -9,-2 -10,-2l0 -16 0 -1zm101 21c-2,0 -4,-2 -6,-3 -5,-2 -4,-2 -4,-4 0,-6 0,-12 0,-18 2,0 10,5 11,5l0 19 0 1zm-81 -19c0,-5 0,-9 1,-14 0,-3 -1,-5 13,3 0,2 -2,10 -2,13 -2,0 -9,-2 -12,-3l0 1zm-20 -24c1,0 9,3 10,4l0 15c-1,0 -9,-1 -10,-2l0 -16 0 -1zm56 -6c2,-1 10,-4 11,-4l0 21c-1,1 -10,3 -11,4l0 -21zm34 -5c2,0 10,5 12,6l0 20c-2,0 -9,-5 -12,-6l0 -20zm-36 -23c2,-1 11,-6 13,-6l0 21c-1,1 -11,5 -13,5l0 -20zm36 -6c2,0 10,4 12,5l0 20c-1,0 -11,-4 -12,-5l0 -20zm24 12c1,0 13,4 14,5 0,2 -2,19 -3,20 -2,0 -11,-3 -13,-4l2 -21zm2 -28c2,0 14,6 15,6l-2 18c-1,0 -14,-4 -15,-5l2 -19zm-90 7c1,-1 12,-6 14,-7 1,4 3,16 3,19 -1,1 -12,5 -14,5l-4 -17 1 0zm27 -15c1,-1 14,-6 14,-6l0 21c-1,1 -13,5 -14,5l0 -20zm52 21c0,0 -14,-6 -14,-7 -1,-1 -1,-7 -1,-10 0,-3 0,-7 0,-11 2,0 6,3 7,4 2,1 6,3 6,4l0 19 1 0zm-30 -66c-1,0 -23,18 -27,20l-33 26c-2,1 -6,4 -6,5l4 31c1,5 0,7 2,10 2,1 12,10 14,10l0 -14c2,-1 12,-4 14,-5l0 16c-2,1 -9,4 -10,5 0,1 0,0 0,1 0,0 0,0 0,0l14 10c0,3 -2,7 -2,12 -1,4 -1,7 -2,12 -1,7 -2,16 -3,23 -3,21 -6,52 -7,74 -1,9 -2,16 -1,26 1,16 1,33 2,50l0 2c0,0 0,0 0,0 0,0 0,0 0,0 0,0 0,0 0,0l-11 1c0,-7 1,-18 2,-26 1,-9 1,-17 2,-26 3,-41 6,-80 13,-122l4 -22c-1,-1 -51,-38 -52,-38l0 239 -7 1 0 -240c-2,1 -11,7 -13,10 -6,5 -34,24 -38,29 0,2 2,10 2,12 1,4 1,9 2,12 3,24 6,53 9,78 2,32 4,64 4,96 0,4 1,10 0,14 -1,1 -10,3 -12,4 -12,5 -21,10 -32,17 -6,4 -13,10 -18,15 -3,3 -13,14 -13,19l400 0c0,-6 -7,-16 -12,-20 -5,-6 -11,-10 -17,-15 -12,-9 -27,-15 -43,-20 -1,-6 0,-18 0,-24 0,-38 2,-114 9,-149 0,-3 2,-7 2,-11l-40 -33c-2,-2 -1,-1 -3,-2l0 210c-2,0 -3,0 -4,-1 -2,-1 -3,0 -3,-1l0 -207c-1,0 -22,14 -24,16l-24 16c0,3 1,7 1,11 1,7 2,23 3,31 1,15 2,29 2,44 0,3 3,82 3,87 -2,0 -6,0 -9,0 -1,-3 0,-19 0,-23 0,-7 0,-16 0,-23 0,-5 -1,-45 -2,-46 -2,-1 -5,-2 -9,-3 0,-3 0,-17 0,-19l6 0c0,-10 -2,-34 -4,-45 0,-3 -1,-4 -1,-7 0,-2 -1,-4 -1,-6 3,-2 11,-6 11,-7 -2,-1 -6,-2 -9,-3l3 -17c2,0 11,3 12,3l-1 13c2,0 2,-1 4,-2 2,-1 2,-1 2,-3 0,-3 1,-7 1,-11l9 -61c0,0 -57,-46 -59,-47l0 307 -5 0c-1,-3 0,-16 0,-19l0 -253c0,-9 0,-32 0,-38l1 -2z">
  </path>
  <path fill="none" fill-rule="nonzero" d="M169 272c0,1 -1,16 0,18 0,1 0,1 2,1 7,0 5,0 5,-10l0 -9c0,-2 -5,-1 -7,-1z"/>
</svg>
